<?xml version="1.0" encoding="UTF-8"?>
<svg version="1.1" xmlns="http://www.w3.org/2000/svg" width="820" height="200">
<path d="M0 0 C4.79666837 3.41301403 7.44350588 6.73158626 9.25 12.3125 C9.46815375 15.00684043 9.58195064 17.55882133 9.5625 20.25 C9.56121094 20.98984131 9.55992187 21.72968262 9.55859375 22.49194336 C9.43548807 29.6820847 8.10092372 36.36051864 6.25 43.3125 C6.86746094 42.35730469 7.48492187 41.40210938 8.12109375 40.41796875 C24.529914 15.25276971 24.529914 15.25276971 35.25 11.3125 C39.05925901 10.66918099 42.45377642 10.5582834 46.25 11.3125 C48.90563802 13.2093843 49.82242527 14.45735055 51.25 17.3125 C52.6559086 32.80054233 48.08299967 47.76208611 43.25 62.3125 C43.85585938 61.45269531 44.46171875 60.59289062 45.0859375 59.70703125 C73.78880947 19.13289684 73.78880947 19.13289684 88.25 14.3125 C96.01830512 13.45404599 96.01830512 13.45404599 99.3125 15.75 C102.53960737 24.57076014 98.68212066 32.80199328 95.09692383 40.92504883 C93.89086753 43.51923122 92.66551427 46.10364753 91.4375 48.6875 C79.18998838 74.3188202 79.18998838 74.3188202 79.3125 101.875 C82.8200501 106.28772432 87.84053313 107.49288381 93.25 108.3125 C93.25 108.9725 93.25 109.6325 93.25 110.3125 C86.22765291 110.7010315 79.26495509 110.86772741 73.71484375 105.953125 C68.61749781 100.18703105 67.70447635 94.70269652 67.89916992 87.24072266 C68.26604651 83.13282825 69.11514505 79.37648872 70.296875 75.4453125 C70.51523514 74.71226898 70.73359528 73.97922546 70.95857239 73.22396851 C73.80862935 64.04279435 77.9084911 55.43018668 81.96508789 46.73486328 C85.8543537 38.35755395 89.32721983 30.63020716 90.25 21.3125 C82.75202798 22.45349574 78.50723771 27.14131826 73.25 32.3125 C72.70432373 32.83118652 72.15864746 33.34987305 71.59643555 33.88427734 C67.2211548 38.11429805 63.57759396 42.60240969 60.0625 47.5625 C59.50788086 48.33899902 58.95326172 49.11549805 58.38183594 49.91552734 C49.55357836 62.40678572 41.56230573 75.40086712 34.1875 88.796875 C33.86918213 89.374375 33.55086426 89.951875 33.22290039 90.546875 C32.54045144 91.78538713 31.86013276 93.02507434 31.18139648 94.265625 C28.46813675 99.14361994 28.46813675 99.14361994 26.3125 100.8125 C23.68928996 101.44842971 21.82635055 101.02815293 19.25 100.3125 C18.25836461 97.79603832 17.96982014 96.02227641 18.97607422 93.47314453 C20.16435422 91.24290859 21.41576604 89.05872631 22.6875 86.875 C33.45722578 67.32818494 41.66712309 43.85214186 42.25 21.3125 C41.47737205 18.31655043 41.47737205 18.31655043 40.25 16.3125 C34.1126632 16.79385975 30.94312357 18.20843002 26.88842773 22.88183594 C25.40382212 24.74671804 23.97527157 26.64262121 22.5625 28.5625 C21.77649414 29.62585571 21.77649414 29.62585571 20.97460938 30.71069336 C6.85739969 50.04913166 -3.92192085 71.29378292 -13.18530273 93.32788086 C-13.82254272 94.82847046 -13.82254272 94.82847046 -14.47265625 96.359375 C-14.84140869 97.24463867 -15.21016113 98.12990234 -15.59008789 99.04199219 C-16.74813814 101.30885545 -17.77541771 102.72029204 -19.75 104.3125 C-22.01171875 104.60546875 -22.01171875 104.60546875 -24.4375 104.5 C-25.64986328 104.45939453 -25.64986328 104.45939453 -26.88671875 104.41796875 C-27.50160156 104.38316406 -28.11648438 104.34835938 -28.75 104.3125 C-28.23593871 99.16397842 -26.3470101 95.40612365 -23.8125 91 C-12.59589128 70.62562809 5.06974041 35.16946231 -0.25390625 11.02734375 C-1.25511435 7.87496853 -2.43435091 5.61858396 -4.8125 3.3125 C-12.60718509 0.65899018 -19.27690961 2.29150169 -26.60546875 5.640625 C-44.15090984 14.96913281 -57.98360215 28.97486379 -64.3359375 48.07421875 C-64.95753271 51.43435132 -64.97500734 54.78224976 -65 58.1875 C-65.020625 58.88230469 -65.04125 59.57710937 -65.0625 60.29296875 C-65.1040416 65.80761567 -64.02183972 69.87879893 -60.21484375 73.95703125 C-54.50631997 78.32237296 -50.89205559 79.08461412 -43.75 78.3125 C-36.50181004 75.75758247 -31.55202162 69.7366055 -27.75 63.3125 C-25.64612857 58.4735957 -25.32393791 54.5104575 -25.75 49.3125 C-26.60219923 47.21007556 -26.60219923 47.21007556 -28.75 46.3125 C-31.43235196 45.7834365 -34.01406275 45.53675715 -36.75 45.3125 C-36.75 44.3225 -36.75 43.3325 -36.75 42.3125 C-25.98171877 41.53965685 -25.98171877 41.53965685 -21.5625 44.3125 C-18.79006639 48.90135563 -18.32453571 52.56470982 -19.125 57.734375 C-21.44154357 67.05846287 -27.11518706 73.5556134 -34.7578125 79.12109375 C-41.69340504 83.26885007 -48.92205611 82.98631876 -56.75 82.3125 C-63.59732572 80.39607752 -68.50209847 75.80882767 -72 69.6875 C-75.71245247 61.65894425 -75.49848664 52.59365456 -72.75 44.3125 C-64.73405687 24.21282171 -49.42366192 10.01327846 -29.8828125 0.98828125 C-20.94802622 -2.46214435 -9.00486446 -4.11602946 0 0 Z M4.25 45.3125 C5.25 47.3125 5.25 47.3125 5.25 47.3125 Z " fill="#000000" transform="translate(332.75,25.6875)"/>
<path d="M0 0 C0.90492188 0.02320313 1.80984375 0.04640625 2.7421875 0.0703125 C3.65226563 0.08835938 4.56234375 0.10640625 5.5 0.125 C6.19867187 0.14820313 6.89734375 0.17140625 7.6171875 0.1953125 C5.98870679 3.71249507 3.90451802 6.79599922 1.7421875 10.0078125 C-4.80008027 19.92517989 -10.01321451 30.61472955 -15.3828125 41.1953125 C-12.66306727 39.03605531 -9.99709972 36.85781382 -7.3828125 34.5703125 C-2.34546845 30.58241513 1.36115767 29.97182362 7.62890625 29.9296875 C9.6171875 30.1953125 9.6171875 30.1953125 11.6171875 32.1953125 C12.43726122 37.11575481 10.99808997 40.30086753 8.30859375 44.29296875 C5.36915746 47.59898601 1.76815152 49.71688696 -2.3828125 51.1953125 C-5.1640625 51.3203125 -5.1640625 51.3203125 -7.3828125 51.1953125 C-7.46441998 53.09041949 -7.52227709 54.98655754 -7.5703125 56.8828125 C-7.60511719 57.93855469 -7.63992188 58.99429688 -7.67578125 60.08203125 C-7.34629721 63.58334831 -6.45391759 65.38669194 -4.3828125 68.1953125 C-2.60567718 69.45226517 -2.60567718 69.45226517 -0.3828125 69.1953125 C7.28740667 65.7863262 11.11897842 57.4661 14.6171875 50.1953125 C15.6071875 50.1953125 16.5971875 50.1953125 17.6171875 50.1953125 C16.40743121 59.66478418 11.7456727 66.93750813 4.44921875 72.953125 C0.24932368 75.80081505 -4.49524933 75.92094048 -9.3828125 75.1953125 C-13.24821938 73.3767772 -15.12240433 70.79538349 -16.8203125 66.8828125 C-17.64400422 61.48305566 -17.5257142 57.33825318 -14.8828125 52.3828125 C-11.89620924 49.76953465 -9.26362665 48.97910616 -5.5078125 47.8671875 C-2.93112762 47.05250037 -1.22503315 46.19105153 0.6171875 44.1953125 C1.4214083 41.59675517 1.4214083 41.59675517 1.6171875 39.1953125 C-6.30505716 39.94981199 -12.506107 44.92436576 -17.765625 50.71875 C-22.90206377 57.27001622 -24.92005786 64.95755036 -24.3828125 73.1953125 C-28.0128125 73.1953125 -31.6428125 73.1953125 -35.3828125 73.1953125 C-35.3828125 71.8753125 -35.3828125 70.5553125 -35.3828125 69.1953125 C-36.0015625 69.8553125 -36.6203125 70.5153125 -37.2578125 71.1953125 C-41.06357528 73.63100068 -43.553084 73.88039314 -48 73.734375 C-50.7694396 73.10784604 -51.7145431 72.35748303 -53.5078125 70.1953125 C-54.1265625 69.2053125 -54.7453125 68.2153125 -55.3828125 67.1953125 C-56.1665625 67.9996875 -56.9503125 68.8040625 -57.7578125 69.6328125 C-60.96378197 72.76244936 -62.41360672 73.37070302 -66.7578125 73.5078125 C-69.89822795 73.45218517 -71.17926666 73.31446128 -73.9453125 71.6953125 C-75.99559439 68.12960486 -76.0556207 65.14381316 -75.3828125 61.1953125 C-73.34083929 54.41421429 -69.9641866 48.27190626 -66.3828125 42.1953125 C-75.43152957 47.71282291 -80.77329118 54.91719166 -86.26953125 63.79296875 C-86.62289551 64.35757813 -86.97625977 64.9221875 -87.34033203 65.50390625 C-88.37205497 67.1778586 -89.36406705 68.87607524 -90.35546875 70.57421875 C-92.3828125 73.1953125 -92.3828125 73.1953125 -94.7421875 74 C-95.92554688 74.03480469 -95.92554688 74.03480469 -97.1328125 74.0703125 C-97.93203125 74.10898438 -98.73125 74.14765625 -99.5546875 74.1875 C-100.45960938 74.19136719 -100.45960938 74.19136719 -101.3828125 74.1953125 C-100.1702387 70.47097868 -98.87421271 66.81728444 -97.3828125 63.1953125 C-100.84571662 61.93403049 -100.84571662 61.93403049 -104.3828125 62.1953125 C-106.96442905 64.26580363 -109.07937126 66.51806194 -111.26953125 68.99609375 C-114.00087705 71.83851091 -115.92276909 72.99408857 -119.8203125 73.53125 C-126.70453569 73.63619243 -126.70453569 73.63619243 -129.8828125 71.5703125 C-133.77781444 65.4032261 -133.79247373 60.17159218 -132.3828125 53.1953125 C-129.72354691 44.07389373 -125.05372639 35.83794634 -116.6015625 31.04296875 C-112.54456803 29.49302544 -108.62668509 29.36156054 -104.3828125 30.1953125 C-101.80643779 32.08046473 -100.78613822 33.38866107 -99.3828125 36.1953125 C-98.80979937 44.49298346 -99.19633151 51.49465011 -102.3828125 59.1953125 C-97.74393621 58.50568761 -97.74393621 58.50568761 -94.0859375 55.80859375 C-92.72298762 53.65681329 -91.54990479 51.46065175 -90.3828125 49.1953125 C-89.35302809 47.25162064 -88.31826262 45.31063026 -87.28295898 43.36987305 C-86.56490051 42.01676398 -85.85332601 40.66019162 -85.14868164 39.30004883 C-83.74485542 36.60969724 -82.54236587 34.35486587 -80.3828125 32.1953125 C-77.78125 32 -77.78125 32 -74.7578125 32.0703125 C-73.25347656 32.09738281 -73.25347656 32.09738281 -71.71875 32.125 C-70.94789063 32.14820312 -70.17703125 32.17140625 -69.3828125 32.1953125 C-69.78113281 32.70320313 -70.17945313 33.21109375 -70.58984375 33.734375 C-73.66847425 37.73434748 -76.29876864 41.56410393 -78.3828125 46.1953125 C-77.92132813 45.75960937 -77.45984375 45.32390625 -76.984375 44.875 C-69.65226671 38.18046634 -62.58224516 32.57306927 -52.3828125 32.1953125 C-54.32139855 38.85920204 -57.60209172 44.90023142 -60.75 51.05664062 C-63.85063259 57.35422724 -65.48389062 63.23621482 -66.3828125 70.1953125 C-59.39432156 67.97944952 -56.69937332 62.40361624 -53.3828125 56.1953125 C-51.18860397 51.6092302 -49.26563404 46.91693927 -47.3828125 42.1953125 C-46.99996094 41.30199219 -46.61710937 40.40867188 -46.22265625 39.48828125 C-45.1786417 36.63787873 -45.24279015 34.20579309 -45.3828125 31.1953125 C-42.0828125 31.1953125 -38.7828125 31.1953125 -35.3828125 31.1953125 C-34.30897095 35.09378685 -34.39916976 37.10861538 -36.1484375 40.7421875 C-36.54417969 41.5878125 -36.93992187 42.4334375 -37.34765625 43.3046875 C-37.77175781 44.17609375 -38.19585938 45.0475 -38.6328125 45.9453125 C-44.68613977 57.53513116 -44.68613977 57.53513116 -46.3828125 70.1953125 C-45.3103125 69.8034375 -44.2378125 69.4115625 -43.1328125 69.0078125 C-42.52953125 68.78738281 -41.92625 68.56695312 -41.3046875 68.33984375 C-35.77301388 65.0455747 -33.16501236 58.34156521 -30.3203125 52.8203125 C-29.60512451 51.44613159 -29.60512451 51.44613159 -28.87548828 50.04418945 C-25.35535556 43.22501467 -22.03096028 36.32320524 -18.7578125 29.3828125 C-15.4780788 22.42975366 -12.09345454 15.58280601 -8.3203125 8.8828125 C-7.95019043 8.22498779 -7.58006836 7.56716309 -7.19873047 6.8894043 C-3.40000238 0.27868872 -3.40000238 0.27868872 0 0 Z M-119.1796875 45.05078125 C-123.24991707 52.30583331 -125.18243356 59.93256152 -124.3828125 68.1953125 C-122.53664063 70.4904777 -122.53664063 70.4904777 -119.6953125 70.3203125 C-114.88334864 68.68606062 -112.10687036 65.42773297 -109.3828125 61.1953125 C-108.38961591 57.83372404 -108.2565671 56.57404869 -109.3828125 53.1953125 C-109.42235484 50.86231425 -109.42682982 48.52823061 -109.3828125 46.1953125 C-107.4028125 45.8653125 -105.4228125 45.5353125 -103.3828125 45.1953125 C-103.08718883 39.87360756 -103.08718883 39.87360756 -105.3828125 35.1953125 C-112.03417332 33.75718043 -115.78984714 40.12693085 -119.1796875 45.05078125 Z " fill="#000000" transform="translate(554.3828125,48.8046875)"/>
<path d="M0 0 C0.33 0.33 0.66 0.66 1 1 C0.6875 4.5 0.6875 4.5 0 8 C-2.95664519 9.4783226 -5.74229737 9.06032783 -9 9 C-10.32 3.6 -10.32 3.6 -9 1.125 C-5.98702178 -0.56980025 -3.38267381 -0.25056843 0 0 Z " fill="#000000" transform="translate(525,64)"/>
</svg>
